<svg width="16" height="16" viewBox="0 0 16 16" fill="none" xmlns="http://www.w3.org/2000/svg">
<path d="M5.87329 1.33325L3.45996 3.75325" stroke="white" stroke-width="1.5" stroke-miterlimit="10" stroke-linecap="round" stroke-linejoin="round"/>
<path d="M10.127 1.33325L12.5403 3.75325" stroke="white" stroke-width="1.5" stroke-miterlimit="10" stroke-linecap="round" stroke-linejoin="round"/>
<path d="M1.33301 5.23324C1.33301 3.9999 1.99301 3.8999 2.81301 3.8999H13.1863C14.0063 3.8999 14.6663 3.9999 14.6663 5.23324C14.6663 6.66657 14.0063 6.56657 13.1863 6.56657H2.81301C1.99301 6.56657 1.33301 6.66657 1.33301 5.23324Z" stroke="white" stroke-width="1.5"/>
<path d="M6.50684 9.33325V11.6999" stroke="white" stroke-width="1.5" stroke-linecap="round"/>
<path d="M9.57324 9.33325V11.6999" stroke="white" stroke-width="1.5" stroke-linecap="round"/>
<path d="M2.33301 6.66675L3.27301 12.4267C3.48634 13.7201 3.99967 14.6667 5.90634 14.6667H9.92634C11.9997 14.6667 12.3063 13.7601 12.5463 12.5067L13.6663 6.66675" stroke="white" stroke-width="1.5" stroke-linecap="round"/>
</svg>
