<?xml version="1.0" encoding="UTF-8" standalone="no"?>
<svg
   viewBox="0 0 189 36"
   version="1.1"
   id="svg4"
   sodipodi:docname="Logo.svg"
   width="189"
   height="36"
   inkscape:version="1.2.2 (b0a8486541, 2022-12-01)"
   xmlns:inkscape="http://www.inkscape.org/namespaces/inkscape"
   xmlns:sodipodi="http://sodipodi.sourceforge.net/DTD/sodipodi-0.dtd"
   xmlns="http://www.w3.org/2000/svg"
   xmlns:svg="http://www.w3.org/2000/svg">
  <defs
     id="defs8" />
  <sodipodi:namedview
     id="namedview6"
     pagecolor="#ffffff"
     bordercolor="#000000"
     borderopacity="0.25"
     inkscape:showpageshadow="2"
     inkscape:pageopacity="0.0"
     inkscape:pagecheckerboard="0"
     inkscape:deskcolor="#d1d1d1"
     showgrid="false"
     inkscape:zoom="6.4399295"
     inkscape:cx="124.06968"
     inkscape:cy="12.655418"
     inkscape:window-width="1854"
     inkscape:window-height="1011"
     inkscape:window-x="66"
     inkscape:window-y="32"
     inkscape:window-maximized="1"
     inkscape:current-layer="svg4" />
  <!--! Font Awesome Free 6.0.0-beta2 by @fontawesome - https://fontawesome.com License - https://fontawesome.com/license/free (Icons: CC BY 4.0, Fonts: SIL OFL 1.1, Code: MIT License) -->
  <path
     d="m 12.2228,0.07845973 c 0.464977,0 0.873593,0.21839822 1.04972,0.71085088 L 15.343781,5.999869 20.705105,4.3710411 c 0.443842,-0.1338568 0.922909,0.014793 1.211759,0.3762086 0.03522,0.040858 0.0634,0.083133 0.09159,0.1275169 -1.204712,0.580516 -2.268522,1.4689033 -3.064619,2.6221874 l -2.888496,4.170701 c -1.923312,0.627015 -3.508462,2.183983 -4.072069,4.29047 L 10.581291,21.1715 8.0943707,23.461159 C 7.7562054,23.778188 7.2560036,23.848639 6.843161,23.651377 6.4267945,23.447069 6.1752843,23.017318 6.207692,22.552341 L 6.6015131,16.958528 1.0605396,16.099026 C 0.60401678,16.028575 0.23703734,15.690409 0.13431972,15.239523 0.03153157,14.788636 0.21371804,14.316615 0.59415363,14.055946 L 5.2129235,10.878604 2.4308123,6.0090284 C 2.2018461,5.6081612 2.2405941,5.1079588 2.5287391,4.7472497 2.8161793,4.3858361 3.2952461,4.2371843 3.7369742,4.3710411 L 9.10182,5.999869 11.173079,0.78931061 C 11.349208,0.29685795 11.757824,0.07845973 12.2228,0.07845973 Z m 14.667906,6.45824667 9.55316,2.4960803 c 2.30375,0.67633 3.966393,2.6771393 4.156612,5.0513403 l 0.486112,5.910841 c 1.211759,0.951088 1.803547,2.557373 1.380842,4.135475 l -2.479877,9.257265 c -0.324077,1.197667 -1.620375,1.852863 -2.761683,1.592197 l -1.084943,-0.288851 c -1.204715,-0.324073 -1.916269,-1.564011 -1.59924,-2.761679 l 0.584744,-2.183984 -17.422541,-4.663859 -0.577699,2.176938 c -0.387481,1.204712 -1.564013,1.916268 -2.761681,1.592193 L 13.27252,28.561814 c -1.204711,-0.324075 -1.916267,-1.556968 -1.592192,-2.761681 l 2.479876,-9.257267 c 0.422706,-1.578103 1.740141,-2.670093 3.261883,-2.888491 l 3.374605,-4.8752117 c 1.352659,-1.9655844 3.79731,-2.8589035 6.094014,-2.2424569 z m -1.162441,4.3559886 c -0.464977,-0.126813 -0.951089,0.05636 -1.218802,0.44384 l -2.27557,3.290064 14.195884,3.804356 -0.324076,-4.043889 c -0.03524,-0.415662 -0.366345,-0.810187 -0.831322,-0.936999 z m -7.002834,10.377437 c 0.901774,0.239533 1.831728,-0.295895 2.071261,-1.197668 0.246578,-0.901774 -0.288849,-1.824681 -1.190623,-2.071261 -0.965179,-0.239533 -1.831727,0.295896 -2.07126,1.197668 -0.246579,0.901773 0.288849,1.831727 1.190622,2.071261 z m 18.296134,1.401975 c -0.901772,-0.239533 -1.824681,0.295895 -2.071259,1.197667 -0.239534,0.901774 0.295894,1.824683 1.197667,2.071262 0.901772,0.239532 1.831726,-0.295895 2.071259,-1.197669 0.239535,-0.901773 -0.295893,-1.831727 -1.197667,-2.07126 z"
     id="path2"
     style="fill:#2291ff;fill-opacity:1;stroke:none;stroke-width:0.0704512" />
  <text
     xml:space="preserve"
     style="font-size:48.0945px;fill:#2291ff;fill-opacity:1;fill-rule:evenodd;stroke:none;stroke-width:0.0704512;stroke-linejoin:round"
     x="44.44157"
     y="35.104385"
     id="text345"><tspan
       sodipodi:role="line"
       id="tspan343"
       x="44.44157"
       y="35.104385"
       style="font-style:normal;font-variant:normal;font-weight:bold;font-stretch:normal;font-size:48.0945px;font-family:FreeMono;-inkscape-font-specification:'FreeMono Bold';fill:#2291ff;fill-opacity:1;stroke:none;stroke-width:0.0704512">ВИЖОК</tspan></text>
</svg>
